<svg width="281" height="248" viewBox="0 0 281 248" fill="none" xmlns="http://www.w3.org/2000/svg">
<path d="M9.4 91C9.4 77.4 15 66.3333 26.2 57.8C37.5333 49.2667 52.3333 45 70.6 45C89 45 104 49.4667 115.6 58.4C127.333 67.3333 133.2 76.6667 133.2 86.4C133.2 87.6 132.733 88.6667 131.8 89.6C131 90.4 130.067 90.8 129 90.8H89C85.9333 90.8 83.1333 89.6667 80.6 87.4C78.0667 85.1333 74.6667 84 70.4 84C64 84 60.8 85.8667 60.8 89.6C60.8 91.6 62.3333 93.2667 65.4 94.6C68.6 95.9333 74.4667 97.1333 83 98.2C102.867 100.733 117 105.4 125.4 112.2C133.933 118.867 138.2 129.067 138.2 142.8C138.2 156.4 131.933 167.533 119.4 176.2C107 184.733 90.7333 189 70.6 189C50.4667 189 34.6667 184.867 23.2 176.6C11.7333 168.333 6 158.267 6 146.4C6 145.2 6.4 144.2 7.2 143.4C8.13333 142.467 9.2 142 10.4 142H48.4C51.2 142 54.2667 143.333 57.6 146C61.0667 148.667 65.8 150 71.8 150C81.8 150 86.8 148.133 86.8 144.4C86.8 142 85 140.2 81.4 139C77.8 137.667 71 136.333 61 135C26.6 130.467 9.4 115.8 9.4 91ZM271.941 126.4V181.6C271.941 183.067 271.407 184.333 270.341 185.4C269.274 186.467 268.007 187 266.541 187H228.341C226.874 187 225.607 186.467 224.541 185.4C223.474 184.333 222.941 183.067 222.941 181.6V127.8C222.941 120.467 219.607 116.8 212.941 116.8C206.274 116.8 202.941 120.467 202.941 127.8V181.6C202.941 183.067 202.407 184.333 201.341 185.4C200.274 186.467 199.007 187 197.541 187H159.541C158.074 187 156.807 186.467 155.741 185.4C154.674 184.333 154.141 183.067 154.141 181.6V88.4C154.141 86.9333 154.674 85.6667 155.741 84.6C156.807 83.5333 158.074 83 159.541 83H194.541C196.007 83 197.274 83.5333 198.341 84.6C199.407 85.6667 199.941 86.9333 199.941 88.4V95C203.407 90.8667 208.074 87.5333 213.941 85C219.941 82.3333 226.341 81 233.141 81C244.074 81 253.274 84.8667 260.741 92.6C268.207 100.2 271.941 111.467 271.941 126.4Z" fill="#FF1E9A" fill-opacity="0.3"/>
<path d="M200.72 186H179.24C178.36 186 177.6 185.68 176.96 185.04C176.32 184.4 176 183.64 176 182.76V126.84C176 125.96 176.32 125.2 176.96 124.56C177.6 123.92 178.36 123.6 179.24 123.6H200.72C201.6 123.6 202.36 123.92 203 124.56C203.64 125.2 203.96 125.96 203.96 126.84V182.76C203.96 183.64 203.64 184.4 203 185.04C202.36 185.68 201.6 186 200.72 186ZM203.36 100.44V114.96C203.36 115.84 203.04 116.6 202.4 117.24C201.76 117.88 201 118.2 200.12 118.2H179.84C178.96 118.2 178.2 117.88 177.56 117.24C176.92 116.6 176.6 115.84 176.6 114.96V100.44C176.6 99.56 176.92 98.8 177.56 98.16C178.2 97.52 178.96 97.2 179.84 97.2H200.12C201 97.2 201.76 97.52 202.4 98.16C203.04 98.8 203.36 99.56 203.36 100.44ZM251.961 144.6V157.8C251.961 161.8 253.681 163.8 257.121 163.8H268.041C268.921 163.8 269.681 164.12 270.321 164.76C270.961 165.4 271.281 166.16 271.281 167.04V182.76C271.281 183.64 270.961 184.4 270.321 185.04C269.681 185.68 268.921 186 268.041 186H254.481C234.481 186 224.481 177.4 224.481 160.2V144.6H215.001C214.121 144.6 213.361 144.28 212.721 143.64C212.081 143 211.761 142.24 211.761 141.36V126.84C211.761 125.96 212.081 125.2 212.721 124.56C213.361 123.92 214.121 123.6 215.001 123.6H224.481V104.04C224.481 103.16 224.801 102.4 225.441 101.76C226.081 101.12 226.841 100.8 227.721 100.8H248.721C249.601 100.8 250.361 101.12 251.001 101.76C251.641 102.4 251.961 103.16 251.961 104.04V123.6H267.081C267.961 123.6 268.721 123.92 269.361 124.56C270.001 125.2 270.321 125.96 270.321 126.84V141.36C270.321 142.24 270.001 143 269.361 143.64C268.721 144.28 267.961 144.6 267.081 144.6H251.961Z" fill="black"/>
</svg>
